<svg xmlns="http://www.w3.org/2000/svg" viewBox="0 0 800 450" width="800" height="450" role="img" aria-label="RPG game map design">
  <defs>
    <linearGradient id="g5" x1="0" y1="0" x2="1" y2="1">
      <stop offset="0" stop-color="#0f172a"/>
      <stop offset="1" stop-color="#111827"/>
    </linearGradient>
  </defs>
  <rect width="800" height="450" fill="url(#g5)"/>
  <g opacity="0.85">
    <rect x="250" y="120" width="300" height="210" rx="10" fill="none" stroke="#3b82f6" stroke-width="2.5"/>
    <path d="M250 250 q60 -40 140 -15 t160 -20" fill="none" stroke="#60a5fa" stroke-width="2.5"/>
    <path d="M300 330 l40 -70 l35 45 l45 -90 l55 80 l30 -35" fill="none" stroke="#38bdf8" stroke-width="2.5" opacity="0.7"/>
    <g stroke="#334155" stroke-width="1"><line x1="300" y1="120" x2="300" y2="330"/><line x1="400" y1="120" x2="400" y2="330"/><line x1="500" y1="120" x2="500" y2="330"/><line x1="250" y1="190" x2="550" y2="190"/><line x1="250" y1="260" x2="550" y2="260"/></g>
    <circle cx="360" cy="220" r="7" fill="#3b82f6"/>
    <rect x="470" y="285" width="14" height="14" fill="#60a5fa"/>
  </g>
  <text x="60" y="405" fill="#64748b" font-family="monospace" font-size="20">Game Dev · Level Design</text>
</svg>
