<svg xmlns="http://www.w3.org/2000/svg" viewBox="0 0 800 450" width="800" height="450" role="img" aria-label="MYOELECTRIC PROSTHETIC HAND">
  <defs>
    <linearGradient id="bg" x1="0" y1="0" x2="1" y2="1">
      <stop offset="0" stop-color="#0a1120"/><stop offset="1" stop-color="#0e1b30"/>
    </linearGradient>
    <linearGradient id="ac" x1="0" y1="0" x2="1" y2="0">
      <stop offset="0" stop-color="#3880ff"/><stop offset="0.5" stop-color="#22d3ee"/><stop offset="1" stop-color="#4ade80"/>
    </linearGradient>
    <pattern id="grid" width="40" height="40" patternUnits="userSpaceOnUse">
      <path d="M40 0H0V40" fill="none" stroke="#22d3ee" stroke-opacity="0.08" stroke-width="1"/>
    </pattern>
  </defs>
  <rect width="800" height="450" fill="url(#bg)"/>
  <rect width="800" height="450" fill="url(#grid)"/>
  <circle cx="640" cy="90" r="180" fill="#3880ff" opacity="0.10"/>
  <circle cx="150" cy="380" r="150" fill="#22d3ee" opacity="0.08"/>
  <g transform="translate(400 225)" opacity="0.9"><g fill="none" stroke="url(#ac)" stroke-width="4" stroke-linecap="round"><path d="M-70 60 L-70 -20 Q-70 -34 -56 -34 Q-42 -34 -42 -20 L-42 30"/><path d="M-42 20 L-42 -50 Q-42 -64 -28 -64 Q-14 -64 -14 -50 L-14 30"/><path d="M-14 20 L-14 -60 Q-14 -74 0 -74 Q14 -74 14 -60 L14 30"/><path d="M14 20 L14 -46 Q14 -60 28 -60 Q42 -60 42 -46 L42 40"/><path d="M-70 60 Q-40 92 42 66 L54 -8 Q30 -20 -70 -8 Z" fill="#22d3ee" fill-opacity="0.12" stroke="none"/></g><g fill="#22d3ee"><circle cx="-56" cy="-34" r="5"/><circle cx="-28" cy="-64" r="5"/><circle cx="0" cy="-74" r="5"/><circle cx="28" cy="-60" r="5"/></g></g>
  <rect x="0" y="446" width="800" height="4" fill="url(#ac)"/>
  <text x="40" y="410" fill="#8d9bb0" font-family="system-ui, sans-serif" font-size="20" letter-spacing="2">MYOELECTRIC PROSTHETIC HAND</text>
</svg>
