<svg xmlns="http://www.w3.org/2000/svg" viewBox="0 0 800 450" width="800" height="450" role="img" aria-label="Social media polarization research">
  <defs>
    <linearGradient id="g2" x1="0" y1="0" x2="1" y2="1">
      <stop offset="0" stop-color="#0f172a"/>
      <stop offset="1" stop-color="#111827"/>
    </linearGradient>
  </defs>
  <rect width="800" height="450" fill="url(#g2)"/>
  <g opacity="0.9">
    <circle cx="250" cy="225" r="70" fill="none" stroke="#3b82f6" stroke-width="2.5"/>
    <circle cx="550" cy="225" r="70" fill="none" stroke="#ef4444" stroke-width="2.5"/>
    <g fill="#3b82f6"><circle cx="230" cy="200" r="5"/><circle cx="270" cy="210" r="5"/><circle cx="245" cy="245" r="5"/><circle cx="285" cy="240" r="5"/><circle cx="215" cy="235" r="5"/></g>
    <g fill="#ef4444"><circle cx="530" cy="200" r="5"/><circle cx="570" cy="210" r="5"/><circle cx="545" cy="245" r="5"/><circle cx="585" cy="240" r="5"/><circle cx="515" cy="235" r="5"/></g>
    <g stroke="#3b82f6" stroke-width="1.5" opacity="0.6"><line x1="230" y1="200" x2="270" y2="210"/><line x1="270" y1="210" x2="245" y2="245"/><line x1="245" y1="245" x2="215" y2="235"/><line x1="285" y1="240" x2="270" y2="210"/></g>
    <g stroke="#ef4444" stroke-width="1.5" opacity="0.6"><line x1="530" y1="200" x2="570" y2="210"/><line x1="570" y1="210" x2="545" y2="245"/><line x1="545" y1="245" x2="515" y2="235"/><line x1="585" y1="240" x2="570" y2="210"/></g>
    <line x1="400" y1="120" x2="400" y2="330" stroke="#334155" stroke-width="2" stroke-dasharray="8 8"/>
  </g>
  <text x="60" y="405" fill="#64748b" font-family="monospace" font-size="20">Algorithms · Echo Chambers · Polarization</text>
</svg>
