<svg xmlns="http://www.w3.org/2000/svg" viewBox="0 0 800 450" width="800" height="450" role="img" aria-label="HONORS RESEARCH · ALGORITHMS">
  <defs>
    <linearGradient id="bg" x1="0" y1="0" x2="1" y2="1">
      <stop offset="0" stop-color="#0a1120"/><stop offset="1" stop-color="#0e1b30"/>
    </linearGradient>
    <linearGradient id="ac" x1="0" y1="0" x2="1" y2="0">
      <stop offset="0" stop-color="#3880ff"/><stop offset="0.5" stop-color="#22d3ee"/><stop offset="1" stop-color="#4ade80"/>
    </linearGradient>
    <pattern id="grid" width="40" height="40" patternUnits="userSpaceOnUse">
      <path d="M40 0H0V40" fill="none" stroke="#22d3ee" stroke-opacity="0.08" stroke-width="1"/>
    </pattern>
  </defs>
  <rect width="800" height="450" fill="url(#bg)"/>
  <rect width="800" height="450" fill="url(#grid)"/>
  <circle cx="640" cy="90" r="180" fill="#3880ff" opacity="0.10"/>
  <circle cx="150" cy="380" r="150" fill="#22d3ee" opacity="0.08"/>
  <g transform="translate(400 225)" opacity="0.9"><g stroke="url(#ac)" stroke-width="2.5" opacity="0.9"><line x1="-90" y1="-40" x2="0" y2="0"/><line x1="0" y1="0" x2="90" y2="-50"/><line x1="0" y1="0" x2="60" y2="60"/><line x1="0" y1="0" x2="-70" y2="55"/><line x1="-90" y1="-40" x2="-70" y2="55"/><line x1="90" y1="-50" x2="60" y2="60"/></g><g fill="#22d3ee"><circle cx="0" cy="0" r="12"/><circle cx="-90" cy="-40" r="8"/><circle cx="90" cy="-50" r="8"/><circle cx="60" cy="60" r="8"/><circle cx="-70" cy="55" r="8"/></g></g>
  <rect x="0" y="446" width="800" height="4" fill="url(#ac)"/>
  <text x="40" y="410" fill="#8d9bb0" font-family="system-ui, sans-serif" font-size="20" letter-spacing="2">HONORS RESEARCH · ALGORITHMS</text>
</svg>
