<svg xmlns="http://www.w3.org/2000/svg" viewBox="0 0 800 450" width="800" height="450" role="img" aria-label="MATE ROV · MQTT COMMS">
  <defs>
    <linearGradient id="bg" x1="0" y1="0" x2="1" y2="1">
      <stop offset="0" stop-color="#0a1120"/><stop offset="1" stop-color="#0e1b30"/>
    </linearGradient>
    <linearGradient id="ac" x1="0" y1="0" x2="1" y2="0">
      <stop offset="0" stop-color="#3880ff"/><stop offset="0.5" stop-color="#22d3ee"/><stop offset="1" stop-color="#4ade80"/>
    </linearGradient>
    <pattern id="grid" width="40" height="40" patternUnits="userSpaceOnUse">
      <path d="M40 0H0V40" fill="none" stroke="#22d3ee" stroke-opacity="0.08" stroke-width="1"/>
    </pattern>
  </defs>
  <rect width="800" height="450" fill="url(#bg)"/>
  <rect width="800" height="450" fill="url(#grid)"/>
  <circle cx="640" cy="90" r="180" fill="#3880ff" opacity="0.10"/>
  <circle cx="150" cy="380" r="150" fill="#22d3ee" opacity="0.08"/>
  <g transform="translate(400 225)" opacity="0.9"><g fill="none" stroke="url(#ac)" stroke-width="3"><path d="M-140 -30 Q-70 -70 0 -30 T140 -30" opacity="0.7"/><path d="M-140 0 Q-70 -40 0 0 T140 0" opacity="0.5"/><rect x="-55" y="20" width="110" height="55" rx="14" fill="#22d3ee" fill-opacity="0.12"/><circle cx="-28" cy="47" r="14"/><circle cx="28" cy="47" r="14"/></g></g>
  <rect x="0" y="446" width="800" height="4" fill="url(#ac)"/>
  <text x="40" y="410" fill="#8d9bb0" font-family="system-ui, sans-serif" font-size="20" letter-spacing="2">MATE ROV · MQTT COMMS</text>
</svg>
